<svg width="249" height="47" viewBox="0 0 249 47" fill="none" xmlns="http://www.w3.org/2000/svg">
<path d="M34.176 46L30.016 33.904H12.8L8.704 46H0L16.768 0.112H26.112L42.88 46H34.176ZM27.904 26.864L23.936 15.088C23.7653 14.4907 23.5093 13.68 23.168 12.656C22.8267 11.632 22.4853 10.5867 22.144 9.52C21.8453 8.41066 21.6107 7.49333 21.44 6.768C21.2267 7.62133 20.9493 8.60266 20.608 9.712C20.3093 10.8213 20.0107 11.8667 19.712 12.848C19.4133 13.8293 19.2 14.576 19.072 15.088L15.04 26.864H27.904ZM70.009 46L56.825 11.312H65.337L72.249 31.344C72.6757 32.5813 73.0597 33.9467 73.401 35.44C73.785 36.9333 74.0197 38.192 74.105 39.216H74.361C74.489 38.1493 74.745 36.8907 75.129 35.44C75.513 33.9467 75.9183 32.5813 76.345 31.344L83.257 11.312H91.769L78.585 46H70.009ZM129.394 10.672C133.277 10.672 136.306 11.6747 138.482 13.68C140.701 15.6853 141.81 18.928 141.81 23.408V46H133.746V25.008C133.746 19.8027 131.613 17.2 127.346 17.2C124.103 17.2 121.885 18.224 120.69 20.272C119.495 22.32 118.898 25.2427 118.898 29.04V46H110.834V11.312H117.042L118.194 15.856H118.642C119.751 14.064 121.266 12.7627 123.186 11.952C125.149 11.0987 127.218 10.672 129.394 10.672ZM196.76 28.592C196.76 34.352 195.267 38.8107 192.28 41.968C189.293 45.0827 185.24 46.64 180.12 46.64C176.963 46.64 174.147 45.936 171.672 44.528C169.197 43.12 167.256 41.072 165.848 38.384C164.44 35.696 163.736 32.432 163.736 28.592C163.736 22.832 165.208 18.416 168.152 15.344C171.139 12.2293 175.192 10.672 180.312 10.672C183.512 10.672 186.349 11.376 188.824 12.784C191.299 14.1493 193.24 16.176 194.648 18.864C196.056 21.5093 196.76 24.752 196.76 28.592ZM171.992 28.592C171.992 32.2613 172.632 35.0987 173.912 37.104C175.235 39.1093 177.347 40.112 180.248 40.112C183.149 40.112 185.24 39.1093 186.52 37.104C187.843 35.0987 188.504 32.2613 188.504 28.592C188.504 24.9227 187.843 22.1067 186.52 20.144C185.24 18.1813 183.128 17.2 180.184 17.2C177.325 17.2 175.235 18.1813 173.912 20.144C172.632 22.1067 171.992 24.9227 171.992 28.592ZM232.936 10.672C237.587 10.672 241.256 12.0587 243.944 14.832C246.675 17.6053 248.04 21.4667 248.04 26.416V30.512H225.128C225.213 33.6693 226.088 36.1227 227.752 37.872C229.416 39.5787 231.72 40.432 234.664 40.432C236.883 40.432 238.888 40.2187 240.68 39.792C242.472 39.3227 244.307 38.6613 246.184 37.808V44.272C244.477 45.0827 242.707 45.68 240.872 46.064C239.037 46.448 236.84 46.64 234.28 46.64C230.909 46.64 227.901 46 225.256 44.72C222.653 43.3973 220.605 41.4133 219.112 38.768C217.661 36.1227 216.936 32.8373 216.936 28.912C216.936 22.9813 218.408 18.4587 221.352 15.344C224.296 12.2293 228.157 10.672 232.936 10.672ZM232.936 16.624C230.76 16.624 228.989 17.328 227.624 18.736C226.301 20.1013 225.533 22.1493 225.32 24.88H240.232C240.189 22.4907 239.571 20.528 238.376 18.992C237.224 17.4133 235.411 16.624 232.936 16.624Z" fill="black"/>
</svg>
