<svg width="34" height="18" viewBox="0 0 34 18" fill="none" xmlns="http://www.w3.org/2000/svg">
<path d="M33 18C33 8.61116 25.8366 1 17 1C8.16344 1 1 8.61116 1 18" stroke="black"/>
<path d="M29.8002 18C29.8002 10.4889 24.0694 4.4 17.0002 4.4C9.93095 4.4 4.2002 10.4889 4.2002 18" stroke="black"/>
<path d="M26.5999 18C26.5999 12.3667 22.3018 7.8 16.9999 7.8C11.698 7.8 7.3999 12.3667 7.3999 18" stroke="black"/>
<path d="M23.4001 18C23.4001 14.2445 20.5347 11.2 17.0001 11.2C13.4655 11.2 10.6001 14.2445 10.6001 18" stroke="black"/>
<path d="M1 17.5H11" stroke="black"/>
<path d="M23 17.5H33" stroke="black"/>
</svg>
