<svg width="8" height="14" viewBox="0 0 8 14" fill="none" xmlns="http://www.w3.org/2000/svg">
<path d="M6.67616 5.954H4.31816V14H2.05016V5.954H0.484156V4.874L2.05016 4.226V3.56C2.05016 2.312 2.34416 1.448 2.93216 0.967999C3.53216 0.475999 4.34816 0.229999 5.38016 0.229999C5.84816 0.229999 6.27416 0.271999 6.65816 0.356C7.05416 0.427999 7.37816 0.511999 7.63016 0.608L7.05416 2.3C6.85016 2.24 6.62216 2.186 6.37016 2.138C6.13016 2.078 5.86616 2.048 5.57816 2.048C5.14616 2.048 4.82816 2.186 4.62416 2.462C4.42016 2.726 4.31816 3.11 4.31816 3.614V4.244H6.67616V5.954Z" fill="black"/>
</svg>
