<svg width="9" height="204" viewBox="0 0 9 204" fill="none" xmlns="http://www.w3.org/2000/svg">
<path d="M4.50802 0.481999C4.85602 0.481999 5.15002 0.571999 5.39002 0.751999C5.64202 0.919999 5.76802 1.226 5.76802 1.67C5.76802 2.114 5.64202 2.426 5.39002 2.606C5.15002 2.786 4.85602 2.876 4.50802 2.876C4.16002 2.876 3.86002 2.786 3.60802 2.606C3.36802 2.426 3.24802 2.114 3.24802 1.67C3.24802 1.226 3.36802 0.919999 3.60802 0.751999C3.86002 0.571999 4.16002 0.481999 4.50802 0.481999ZM5.64202 4.244V14H3.37402V4.244H5.64202ZM8.18789 58.174C8.18789 59.158 7.83389 59.908 7.12589 60.424C6.42989 60.928 5.42789 61.18 4.11989 61.18C3.43589 61.18 2.84789 61.132 2.35589 61.036C1.87589 60.94 1.40789 60.79 0.951891 60.586V58.66C1.43189 58.888 1.95989 59.08 2.53589 59.236C3.12389 59.392 3.67589 59.47 4.19189 59.47C4.81589 59.47 5.26589 59.374 5.54189 59.182C5.81789 58.99 5.95589 58.732 5.95589 58.408C5.95589 58.216 5.90189 58.048 5.79389 57.904C5.68589 57.748 5.46989 57.58 5.14589 57.4C4.83389 57.22 4.36589 56.998 3.74189 56.734C3.11789 56.494 2.59589 56.248 2.17589 55.996C1.76789 55.732 1.45589 55.426 1.23989 55.078C1.03589 54.73 0.933891 54.28 0.933891 53.728C0.933891 52.852 1.27589 52.192 1.95989 51.748C2.65589 51.292 3.57989 51.064 4.73189 51.064C5.33189 51.064 5.89589 51.124 6.42389 51.244C6.96389 51.364 7.50389 51.544 8.04389 51.784L7.32389 53.458C6.86789 53.266 6.42389 53.104 5.99189 52.972C5.55989 52.84 5.11589 52.774 4.65989 52.774C3.66389 52.774 3.16589 53.056 3.16589 53.62C3.16589 53.824 3.22589 53.998 3.34589 54.142C3.47789 54.286 3.69989 54.442 4.01189 54.61C4.33589 54.766 4.79189 54.958 5.37989 55.186C5.95589 55.414 6.45389 55.654 6.87389 55.906C7.29389 56.146 7.61789 56.446 7.84589 56.806C8.07389 57.166 8.18789 57.622 8.18789 58.174ZM8.84159 99.244V109H7.05959L6.75359 107.74H6.64559C6.32159 108.244 5.88359 108.61 5.33159 108.838C4.79159 109.066 4.21559 109.18 3.60359 109.18C2.51159 109.18 1.65359 108.898 1.02959 108.334C0.417586 107.77 0.111586 106.864 0.111586 105.616V99.244H2.37959V105.166C2.37959 106.618 2.97959 107.344 4.17959 107.344C5.09159 107.344 5.71559 107.062 6.05159 106.498C6.39959 105.922 6.57359 105.094 6.57359 104.014V99.244H8.84159ZM4.55498 146.064C5.81498 146.064 6.76898 146.34 7.41698 146.892C8.07699 147.444 8.40699 148.296 8.40699 149.448V156H6.80498L6.35498 154.65H6.28298C5.86298 155.178 5.41898 155.568 4.95098 155.82C4.48298 156.06 3.84698 156.18 3.04298 156.18C2.16698 156.18 1.44098 155.934 0.864985 155.442C0.288984 154.95 0.000984438 154.188 0.000984438 153.156C0.000984438 152.148 0.366984 151.392 1.09898 150.888C1.84298 150.384 2.96498 150.102 4.46498 150.042L6.15698 149.988V149.502C6.15698 148.89 6.00698 148.452 5.70698 148.188C5.40698 147.912 4.98698 147.774 4.44698 147.774C3.95498 147.774 3.48098 147.846 3.02498 147.99C2.58098 148.134 2.13698 148.302 1.69298 148.494L0.972984 146.91C1.45298 146.658 1.99898 146.454 2.61098 146.298C3.23498 146.142 3.88298 146.064 4.55498 146.064ZM6.15698 151.392L4.96898 151.428C3.97298 151.464 3.28298 151.638 2.89898 151.95C2.51498 152.25 2.32298 152.658 2.32298 153.174C2.32298 153.642 2.45498 153.978 2.71898 154.182C2.99498 154.374 3.35498 154.47 3.79898 154.47C4.45898 154.47 5.01698 154.284 5.47298 153.912C5.92898 153.528 6.15698 152.964 6.15698 152.22V151.392ZM5.64202 204H3.37402V190.32H5.64202V204Z" fill="black"/>
</svg>
