<svg width="16" height="26" viewBox="0 0 16 26" fill="none" xmlns="http://www.w3.org/2000/svg">
<path d="M7.63947 0.00853432C3.56371 0.217548 0.219495 3.56176 0.0104818 7.63752C-0.0940248 9.6754 0.585268 11.661 1.94385 13.1764C3.25019 14.6917 3.92948 16.6773 3.92948 18.8197V19.1333C3.92948 19.4468 4.1385 19.6558 4.45202 19.6558H11.5585C11.872 19.6558 12.081 19.4468 12.081 19.1333V18.7152C12.081 16.6773 12.8125 14.6917 14.2234 12.9674C15.373 11.5565 16 9.77991 16 7.95104C16 3.45725 12.1855 -0.200479 7.63947 0.00853432ZM13.3873 12.3403C11.872 14.2214 11.0359 16.4161 11.0359 18.663H4.97455C4.9223 16.3116 4.13849 14.1692 2.72765 12.4971C1.57808 11.1385 1.0033 9.46639 1.05555 7.68977C1.21231 4.13655 4.13849 1.21036 7.69172 1.0536C11.663 0.896841 14.9549 4.03204 14.9549 8.00329C14.9549 9.57089 14.4324 11.0862 13.3873 12.3403Z" fill="black"/>
<path d="M11.5585 20.5441H4.71327C4.39975 20.5441 4.19073 20.7531 4.19073 21.0666C4.19073 21.3801 4.39975 21.5891 4.71327 21.5891H11.5585C11.872 21.5891 12.081 21.3801 12.081 21.0666C12.081 20.8053 11.8197 20.5441 11.5585 20.5441Z" fill="black"/>
<path d="M11.5585 22.3207H4.71327C4.39975 22.3207 4.19073 22.5297 4.19073 22.8432C4.19073 23.1568 4.39975 23.3658 4.71327 23.3658H11.5585C11.872 23.3658 12.081 23.1568 12.081 22.8432C12.081 22.582 11.8197 22.3207 11.5585 22.3207Z" fill="black"/>
<path d="M10.3567 24.0451H5.91517C5.60165 24.0451 5.39264 24.2541 5.39264 24.5676C5.39264 24.8811 5.60165 25.0901 5.91517 25.0901H10.3567C10.6702 25.0901 10.8792 24.8811 10.8792 24.5676C10.8792 24.2541 10.618 24.0451 10.3567 24.0451Z" fill="black"/>
</svg>
