<svg width="15" height="247" viewBox="0 0 15 247" fill="none" xmlns="http://www.w3.org/2000/svg">
<path d="M11.4612 0.0639992C12.5652 0.0639992 13.3932 0.345999 13.9452 0.91C14.5092 1.474 14.7912 2.386 14.7912 3.646V10H12.5232V4.078C12.5232 2.626 11.9712 1.9 10.8672 1.9C10.0752 1.9 9.5112 2.158 9.1752 2.674C8.8392 3.19 8.6712 3.94 8.6712 4.924V10H6.4032V4.078C6.4032 2.626 5.8452 1.9 4.7292 1.9C3.9012 1.9 3.3312 2.188 3.0192 2.764C2.7072 3.34 2.5512 4.162 2.5512 5.23V10H0.283195V0.243999H2.0292L2.3532 1.522H2.4792C2.7672 1.018 3.1692 0.652 3.6852 0.424C4.2132 0.183999 4.7592 0.0639992 5.3232 0.0639992C6.0552 0.0639992 6.6672 0.189999 7.1592 0.442C7.6632 0.681999 8.0472 1.06 8.3112 1.576H8.4912C8.7912 1.048 9.2112 0.664 9.7512 0.424C10.2912 0.183999 10.8612 0.0639992 11.4612 0.0639992ZM12.1417 52.104C12.1417 53.724 11.7217 54.978 10.8817 55.866C10.0417 56.742 8.90168 57.18 7.46168 57.18C6.57368 57.18 5.78168 56.982 5.08568 56.586C4.38968 56.19 3.84368 55.614 3.44768 54.858C3.05168 54.102 2.85368 53.184 2.85368 52.104C2.85368 50.484 3.26768 49.242 4.09568 48.378C4.93568 47.502 6.07568 47.064 7.51568 47.064C8.41568 47.064 9.21368 47.262 9.90968 47.658C10.6057 48.042 11.1517 48.612 11.5477 49.368C11.9437 50.112 12.1417 51.024 12.1417 52.104ZM5.17568 52.104C5.17568 53.136 5.35568 53.934 5.71568 54.498C6.08768 55.062 6.68168 55.344 7.49768 55.344C8.31368 55.344 8.90168 55.062 9.26168 54.498C9.63368 53.934 9.81968 53.136 9.81968 52.104C9.81968 51.072 9.63368 50.28 9.26168 49.728C8.90168 49.176 8.30768 48.9 7.47968 48.9C6.67568 48.9 6.08768 49.176 5.71568 49.728C5.35568 50.28 5.17568 51.072 5.17568 52.104ZM9.08175 103.362C9.35775 103.362 9.62775 103.338 9.89175 103.29C10.1678 103.23 10.4198 103.164 10.6478 103.092V104.784C10.4078 104.892 10.0958 104.982 9.71175 105.054C9.32775 105.138 8.92575 105.18 8.50575 105.18C7.95375 105.18 7.44975 105.09 6.99375 104.91C6.53775 104.718 6.17775 104.394 5.91375 103.938C5.64975 103.482 5.51775 102.846 5.51775 102.03V96.954H4.20375V95.964L5.64375 95.172L6.36375 93.102H7.78575V95.244H10.5578V96.954H7.78575V102.012C7.78575 102.468 7.90575 102.81 8.14575 103.038C8.38575 103.254 8.69775 103.362 9.08175 103.362ZM7.50802 138.482C7.85602 138.482 8.15002 138.572 8.39002 138.752C8.64202 138.92 8.76802 139.226 8.76802 139.67C8.76802 140.114 8.64202 140.426 8.39002 140.606C8.15002 140.786 7.85602 140.876 7.50802 140.876C7.16002 140.876 6.86002 140.786 6.60802 140.606C6.36802 140.426 6.24802 140.114 6.24802 139.67C6.24802 139.226 6.36802 138.92 6.60802 138.752C6.86002 138.572 7.16002 138.482 7.50802 138.482ZM8.64202 142.244V152H6.37402V142.244H8.64202ZM12.1417 195.104C12.1417 196.724 11.7217 197.978 10.8817 198.866C10.0417 199.742 8.90168 200.18 7.46168 200.18C6.57368 200.18 5.78168 199.982 5.08568 199.586C4.38968 199.19 3.84368 198.614 3.44768 197.858C3.05168 197.102 2.85368 196.184 2.85368 195.104C2.85368 193.484 3.26768 192.242 4.09568 191.378C4.93568 190.502 6.07568 190.064 7.51568 190.064C8.41568 190.064 9.21368 190.262 9.90968 190.658C10.6057 191.042 11.1517 191.612 11.5477 192.368C11.9437 193.112 12.1417 194.024 12.1417 195.104ZM5.17568 195.104C5.17568 196.136 5.35568 196.934 5.71568 197.498C6.08768 198.062 6.68168 198.344 7.49768 198.344C8.31368 198.344 8.90168 198.062 9.26168 197.498C9.63368 196.934 9.81968 196.136 9.81968 195.104C9.81968 194.072 9.63368 193.28 9.26168 192.728C8.90168 192.176 8.30768 191.9 7.47968 191.9C6.67568 191.9 6.08768 192.176 5.71568 192.728C5.35568 193.28 5.17568 194.072 5.17568 195.104ZM8.40359 237.064C9.49559 237.064 10.3476 237.346 10.9596 237.91C11.5836 238.474 11.8956 239.386 11.8956 240.646V247H9.62759V241.096C9.62759 239.632 9.02759 238.9 7.82759 238.9C6.91559 238.9 6.29159 239.188 5.95559 239.764C5.61959 240.34 5.45159 241.162 5.45159 242.23V247H3.18359V237.244H4.92959L5.25359 238.522H5.37959C5.69159 238.018 6.11759 237.652 6.65759 237.424C7.20959 237.184 7.79159 237.064 8.40359 237.064Z" fill="black"/>
</svg>
