<svg width="11" height="106" viewBox="0 0 11 106" fill="none" xmlns="http://www.w3.org/2000/svg">
<path d="M10.1417 5.104C10.1417 6.724 9.72168 7.978 8.88168 8.866C8.04168 9.742 6.90168 10.18 5.46168 10.18C4.57368 10.18 3.78168 9.982 3.08568 9.586C2.38968 9.19 1.84368 8.614 1.44768 7.858C1.05168 7.102 0.85368 6.184 0.85368 5.104C0.85368 3.484 1.26768 2.242 2.09568 1.378C2.93568 0.501999 4.07568 0.0639992 5.51568 0.0639992C6.41568 0.0639992 7.21368 0.261999 7.90968 0.657999C8.60568 1.042 9.15168 1.612 9.54768 2.368C9.94368 3.112 10.1417 4.024 10.1417 5.104ZM3.17568 5.104C3.17568 6.136 3.35568 6.934 3.71568 7.498C4.08768 8.062 4.68168 8.344 5.49768 8.344C6.31368 8.344 6.90168 8.062 7.26168 7.498C7.63368 6.934 7.81968 6.136 7.81968 5.104C7.81968 4.072 7.63368 3.28 7.26168 2.728C6.90168 2.176 6.30768 1.9 5.47968 1.9C4.67568 1.9 4.08768 2.176 3.71568 2.728C3.35568 3.28 3.17568 4.072 3.17568 5.104ZM7.08175 55.362C7.35775 55.362 7.62775 55.338 7.89175 55.29C8.16775 55.23 8.41975 55.164 8.64775 55.092V56.784C8.40775 56.892 8.09575 56.982 7.71175 57.054C7.32775 57.138 6.92575 57.18 6.50575 57.18C5.95375 57.18 5.44975 57.09 4.99375 56.91C4.53775 56.718 4.17775 56.394 3.91375 55.938C3.64975 55.482 3.51775 54.846 3.51775 54.03V48.954H2.20375V47.964L3.64375 47.172L4.36375 45.102H5.78575V47.244H8.55775V48.954H5.78575V54.012C5.78575 54.468 5.90575 54.81 6.14575 55.038C6.38575 55.254 6.69775 55.362 7.08175 55.362ZM5.65251 95.064C6.96051 95.064 7.99251 95.454 8.74851 96.234C9.51651 97.014 9.90051 98.1 9.90051 99.492V100.644H3.45651C3.48051 101.532 3.72651 102.222 4.19451 102.714C4.66251 103.194 5.31051 103.434 6.13851 103.434C6.76251 103.434 7.32651 103.374 7.83051 103.254C8.33451 103.122 8.85051 102.936 9.37851 102.696V104.514C8.89851 104.742 8.40051 104.91 7.88451 105.018C7.36851 105.126 6.75051 105.18 6.03051 105.18C5.08251 105.18 4.23651 105 3.49251 104.64C2.76051 104.268 2.18451 103.71 1.76451 102.966C1.35651 102.222 1.15251 101.298 1.15251 100.194C1.15251 98.526 1.56651 97.254 2.39451 96.378C3.22251 95.502 4.30851 95.064 5.65251 95.064ZM5.65251 96.738C5.04051 96.738 4.54251 96.936 4.15851 97.332C3.78651 97.716 3.57051 98.292 3.51051 99.06H7.70451C7.69251 98.388 7.51851 97.836 7.18251 97.404C6.85851 96.96 6.34851 96.738 5.65251 96.738Z" fill="black"/>
</svg>
