<svg width="28" height="28" viewBox="0 0 28 28" fill="none" xmlns="http://www.w3.org/2000/svg">
<circle cx="14.0173" cy="14.0173" r="12.6251" stroke="black"/>
<circle cx="7.39408" cy="8.13934" r="0.739245" transform="rotate(28.0433 7.39408 8.13934)" fill="black"/>
<circle cx="11.3089" cy="10.2246" r="0.739245" transform="rotate(28.0433 11.3089 10.2246)" fill="black"/>
<circle cx="15.2234" cy="12.3099" r="0.739245" transform="rotate(28.0433 15.2234 12.3099)" fill="black"/>
<circle cx="19.1382" cy="14.3952" r="0.739245" transform="rotate(28.0433 19.1382 14.3952)" fill="black"/>
<circle cx="23.0531" cy="16.4805" r="0.739245" transform="rotate(28.0433 23.0531 16.4805)" fill="black"/>
<circle cx="5.30869" cy="12.054" r="0.739245" transform="rotate(28.0433 5.30869 12.054)" fill="black"/>
<circle cx="9.22354" cy="14.1394" r="0.739245" transform="rotate(28.0433 9.22354 14.1394)" fill="black"/>
<circle cx="13.138" cy="16.2246" r="0.739245" transform="rotate(28.0433 13.138 16.2246)" fill="black"/>
<circle cx="17.0529" cy="18.3099" r="0.739245" transform="rotate(28.0433 17.0529 18.3099)" fill="black"/>
<circle cx="20.9677" cy="20.3952" r="0.739245" transform="rotate(28.0433 20.9677 20.3952)" fill="black"/>
<circle cx="3.22327" cy="15.9688" r="0.739245" transform="rotate(28.0433 3.22327 15.9688)" fill="black"/>
<circle cx="7.13816" cy="18.054" r="0.739245" transform="rotate(28.0433 7.13816 18.054)" fill="black"/>
<circle cx="11.053" cy="20.1394" r="0.739245" transform="rotate(28.0433 11.053 20.1394)" fill="black"/>
<circle cx="14.9675" cy="22.2246" r="0.739245" transform="rotate(28.0433 14.9675 22.2246)" fill="black"/>
<circle cx="18.8823" cy="24.3099" r="0.739245" transform="rotate(28.0433 18.8823 24.3099)" fill="black"/>
<circle cx="5.05277" cy="21.9688" r="0.739245" transform="rotate(28.0433 5.05277 21.9688)" fill="black"/>
<circle cx="8.96762" cy="24.054" r="0.739245" transform="rotate(28.0433 8.96762 24.054)" fill="black"/>
<circle cx="12.8825" cy="26.1393" r="0.739245" transform="rotate(28.0433 12.8825 26.1393)" fill="black"/>
<circle cx="15.4793" cy="2.3952" r="0.739245" transform="rotate(28.0433 15.4793 2.3952)" fill="black"/>
<circle cx="19.3942" cy="4.4805" r="0.739245" transform="rotate(28.0433 19.3942 4.4805)" fill="black"/>
<circle cx="23.3086" cy="6.56575" r="0.739245" transform="rotate(28.0433 23.3086 6.56575)" fill="black"/>
<circle cx="9.47946" cy="4.22462" r="0.739245" transform="rotate(28.0433 9.47946 4.22462)" fill="black"/>
<circle cx="13.3939" cy="6.30991" r="0.739245" transform="rotate(28.0433 13.3939 6.30991)" fill="black"/>
<circle cx="17.3088" cy="8.39516" r="0.739245" transform="rotate(28.0433 17.3088 8.39516)" fill="black"/>
<circle cx="21.2237" cy="10.4805" r="0.739245" transform="rotate(28.0433 21.2237 10.4805)" fill="black"/>
<circle cx="25.1381" cy="12.5658" r="0.739245" transform="rotate(28.0433 25.1381 12.5658)" fill="black"/>
<circle cx="4.39395" cy="9.05404" r="0.739245" transform="rotate(28.0433 4.39395 9.05404)" fill="black"/>
<circle cx="8.30881" cy="11.1393" r="0.739245" transform="rotate(28.0433 8.30881 11.1393)" fill="black"/>
<circle cx="12.2233" cy="13.2246" r="0.739245" transform="rotate(28.0433 12.2233 13.2246)" fill="black"/>
<circle cx="16.1381" cy="15.3099" r="0.739245" transform="rotate(28.0433 16.1381 15.3099)" fill="black"/>
<circle cx="20.053" cy="17.3952" r="0.739245" transform="rotate(28.0433 20.053 17.3952)" fill="black"/>
<circle cx="23.9674" cy="19.4805" r="0.739245" transform="rotate(28.0433 23.9674 19.4805)" fill="black"/>
<circle cx="2.30854" cy="12.9687" r="0.739245" transform="rotate(28.0433 2.30854 12.9687)" fill="black"/>
<circle cx="6.22342" cy="15.0541" r="0.739245" transform="rotate(28.0433 6.22342 15.0541)" fill="black"/>
<circle cx="10.1383" cy="17.1393" r="0.739245" transform="rotate(28.0433 10.1383 17.1393)" fill="black"/>
<circle cx="14.0527" cy="19.2247" r="0.739245" transform="rotate(28.0433 14.0527 19.2247)" fill="black"/>
<circle cx="17.9676" cy="21.3099" r="0.739245" transform="rotate(28.0433 17.9676 21.3099)" fill="black"/>
<circle cx="21.8825" cy="23.3952" r="0.739245" transform="rotate(28.0433 21.8825 23.3952)" fill="black"/>
<circle cx="4.13803" cy="18.9688" r="0.739245" transform="rotate(28.0433 4.13803 18.9688)" fill="black"/>
<circle cx="8.05289" cy="21.0541" r="0.739245" transform="rotate(28.0433 8.05289 21.0541)" fill="black"/>
<circle cx="11.9678" cy="23.1393" r="0.739245" transform="rotate(28.0433 11.9678 23.1393)" fill="black"/>
<circle cx="15.8822" cy="25.2246" r="0.739245" transform="rotate(28.0433 15.8822 25.2246)" fill="black"/>
<circle cx="6.47934" cy="5.13937" r="0.739245" transform="rotate(28.0433 6.47934 5.13937)" fill="black"/>
<circle cx="10.3942" cy="7.22462" r="0.739245" transform="rotate(28.0433 10.3942 7.22462)" fill="black"/>
<circle cx="14.3087" cy="9.30993" r="0.739245" transform="rotate(28.0433 14.3087 9.30993)" fill="black"/>
<circle cx="18.2235" cy="11.3952" r="0.739245" transform="rotate(28.0433 18.2235 11.3952)" fill="black"/>
<circle cx="22.1384" cy="13.4805" r="0.739245" transform="rotate(28.0433 22.1384 13.4805)" fill="black"/>
<circle cx="26.0528" cy="15.5658" r="0.739245" transform="rotate(28.0433 26.0528 15.5658)" fill="black"/>
<circle cx="12.4792" cy="3.30991" r="0.739245" transform="rotate(28.0433 12.4792 3.30991)" fill="black"/>
<circle cx="16.394" cy="5.39521" r="0.739245" transform="rotate(28.0433 16.394 5.39521)" fill="black"/>
<circle cx="20.3085" cy="7.48046" r="0.739245" transform="rotate(28.0433 20.3085 7.48046)" fill="black"/>
<circle cx="24.2234" cy="9.56576" r="0.739245" transform="rotate(28.0433 24.2234 9.56576)" fill="black"/>
</svg>
