<svg width="31" height="25" viewBox="0 0 31 25" fill="none" xmlns="http://www.w3.org/2000/svg">
<path d="M0 7.78439H31" stroke="black"/>
<path d="M0 13.5252H25.2593" stroke="black"/>
<path d="M0 19.2659H17.2222" stroke="black"/>
<path d="M28.2665 5.02342L12.3689 19.5908L12.3646 19.5861L12.3592 19.5803L12.3538 19.5744L12.3484 19.5684L12.3429 19.5624L12.3374 19.5564L12.3318 19.5503L12.3262 19.5442L12.3206 19.5381L12.3149 19.5319L12.3092 19.5257L12.3035 19.5194L12.2977 19.5131L12.2919 19.5068L12.2861 19.5004L12.2802 19.494L12.2743 19.4875L12.2683 19.4811L12.2624 19.4745L12.2563 19.468L12.2503 19.4614L12.2442 19.4548L12.2381 19.4481L12.232 19.4414L12.2258 19.4346L12.2196 19.4279L12.2134 19.4211L12.2071 19.4142L12.2008 19.4073L12.1944 19.4004L12.1881 19.3935L12.1817 19.3865L12.1752 19.3795L12.1688 19.3724L12.1623 19.3653L12.1557 19.3582L12.1492 19.351L12.1426 19.3438L12.136 19.3366L12.1293 19.3293L12.1226 19.322L12.1159 19.3147L12.1092 19.3074L12.1024 19.3L12.0956 19.2925L12.0888 19.2851L12.0819 19.2776L12.075 19.2701L12.0681 19.2625L12.0611 19.2549L12.0541 19.2473L12.0471 19.2396L12.0401 19.232L12.033 19.2242L12.0259 19.2165L12.0188 19.2087L12.0116 19.2009L12.0044 19.1931L11.9972 19.1852L11.99 19.1773L11.9827 19.1694L11.9754 19.1614L11.9681 19.1534L11.9607 19.1454L11.9534 19.1373L11.946 19.1293L11.9385 19.1211L11.9311 19.113L11.9236 19.1048L11.9161 19.0966L11.9085 19.0884L11.901 19.0801L11.8934 19.0719L11.8858 19.0635L11.8781 19.0552L11.8704 19.0468L11.8627 19.0384L11.855 19.03L11.8473 19.0216L11.8395 19.0131L11.8317 19.0046L11.8239 18.996L11.816 18.9875L11.8082 18.9789L11.8003 18.9703L11.7924 18.9616L11.7844 18.9529L11.7764 18.9443L11.7684 18.9355L11.7604 18.9268L11.7524 18.918L11.7443 18.9092L11.7362 18.9004L11.7281 18.8915L11.72 18.8827L11.7118 18.8738L11.7037 18.8648L11.6955 18.8559L11.6872 18.8469L11.679 18.8379L11.6707 18.8289L11.6624 18.8198L11.6541 18.8108L11.6458 18.8017L11.6374 18.7925L11.6291 18.7834L11.6207 18.7742L11.6122 18.765L11.6038 18.7558L11.5953 18.7466L11.5868 18.7373L11.5783 18.7281L11.5698 18.7188L11.5613 18.7094L11.5527 18.7001L11.5441 18.6907L11.5355 18.6813L11.5269 18.6719L11.5182 18.6625L11.5096 18.653L11.5009 18.6435L11.4922 18.634L11.4835 18.6245L11.4747 18.615L11.466 18.6054L11.4572 18.5958L11.4484 18.5862L11.4396 18.5766L11.4307 18.567L11.4219 18.5573L11.413 18.5476L11.4041 18.5379L11.3952 18.5282L11.3863 18.5185L11.3774 18.5087L11.3684 18.4989L11.3594 18.4892L11.3504 18.4793L11.3414 18.4695L11.3324 18.4597L11.3233 18.4498L11.3143 18.4399L11.3052 18.43L11.2961 18.4201L11.287 18.4101L11.2779 18.4002L11.2687 18.3902L11.2596 18.3802L11.2504 18.3702L11.2412 18.3602L11.232 18.3501L11.2228 18.3401L11.2136 18.33L11.2043 18.3199L11.1951 18.3098L11.1858 18.2997L11.1765 18.2895L11.1672 18.2794L11.1579 18.2692L11.1486 18.259L11.1392 18.2488L11.1299 18.2386L11.1205 18.2284L11.1111 18.2182L11.1017 18.2079L11.0923 18.1976L11.0829 18.1873L11.0734 18.177L11.064 18.1667L11.0545 18.1564L11.045 18.1461L11.0355 18.1357L11.026 18.1253L11.0165 18.115L11.007 18.1046L10.9975 18.0942L10.9879 18.0837L10.9784 18.0733L10.9688 18.0629L10.9592 18.0524L10.9496 18.0419L10.94 18.0315L10.9304 18.021L10.9208 18.0105L10.9112 18L10.9015 17.9894L10.8919 17.9789L10.8822 17.9683L10.8725 17.9578L10.8628 17.9472L10.8531 17.9366L10.8434 17.9261L10.8337 17.9155L10.824 17.9048L10.8143 17.8942L10.8045 17.8836L10.7948 17.873L10.785 17.8623L10.7753 17.8517L10.7655 17.841L10.7557 17.8303L10.7459 17.8196L10.7361 17.8089L10.7263 17.7982L10.7165 17.7875L10.7067 17.7768L10.6969 17.7661L10.687 17.7554L10.6772 17.7446L10.6673 17.7339L10.6575 17.7231L10.6476 17.7124L10.6377 17.7016L10.6279 17.6908L10.618 17.68L10.6081 17.6692L10.5982 17.6584L10.5883 17.6476L10.5784 17.6368L10.5685 17.626L10.5586 17.6152L10.5487 17.6044L10.5387 17.5935L10.5288 17.5827L10.5189 17.5719L10.5089 17.561L10.499 17.5502L10.4891 17.5393L10.4791 17.5285L10.4691 17.5176L10.4592 17.5067L10.4492 17.4958L10.4393 17.485L10.4293 17.4741L10.4193 17.4632L10.4093 17.4523L10.3994 17.4414L10.3894 17.4305L10.3794 17.4196L10.3694 17.4087L10.3594 17.3978L10.3494 17.3869L10.3394 17.376L10.3294 17.3651L10.3194 17.3542L10.3094 17.3433L10.2994 17.3324L10.2894 17.3214L10.2794 17.3105L10.2694 17.2996L10.2594 17.2887L10.2494 17.2778L10.2394 17.2668L10.2294 17.2559L10.2193 17.245L10.2093 17.2341L10.1993 17.2231L10.1893 17.2122L10.1793 17.2013L10.1693 17.1903L10.1593 17.1794L10.1493 17.1685L10.1393 17.1576L10.1292 17.1466L10.1192 17.1357L10.1092 17.1248L10.0992 17.1139L10.0892 17.103L10.0792 17.092L10.0692 17.0811L10.0592 17.0702L10.0492 17.0593L10.0392 17.0484L10.0292 17.0375L10.0192 17.0266L10.0092 17.0157L9.99925 17.0048L9.98926 16.9939L9.97928 16.983L9.9693 16.9721L9.95933 16.9612L9.94936 16.9503L9.93939 16.9395L9.92942 16.9286L9.91946 16.9177L9.90951 16.9068L9.89955 16.896L9.8896 16.8851L9.87966 16.8743L9.86972 16.8634L9.85978 16.8526L9.84985 16.8417L9.83992 16.8309L9.83 16.8201L9.82009 16.8093L9.81017 16.7984L9.80027 16.7876L9.79037 16.7768L9.78047 16.766L9.77059 16.7552L9.7607 16.7445L9.75083 16.7337L9.74096 16.7229L9.73109 16.7121L9.72124 16.7014L9.71138 16.6906L9.70154 16.6799L9.6917 16.6692L9.68187 16.6584L9.67205 16.6477L9.66224 16.637L9.65243 16.6263L9.64263 16.6156L9.63284 16.6049L9.62305 16.5942L9.61328 16.5836L9.60351 16.5729L9.59375 16.5623L9.584 16.5516L9.57426 16.541L9.56452 16.5304L9.5548 16.5198L9.54508 16.5092L9.53538 16.4986L9.52568 16.488L9.51599 16.4774L9.50631 16.4668L9.49665 16.4563L9.48699 16.4458L9.47734 16.4352L9.4677 16.4247L9.45808 16.4142L9.44846 16.4037L9.43885 16.3932L9.42926 16.3827L9.41967 16.3723L9.4101 16.3618L9.40054 16.3514L9.39098 16.341L9.38144 16.3306L9.37192 16.3202L9.3624 16.3098L9.3529 16.2994L9.3434 16.2891L9.33392 16.2787L9.32446 16.2684L9.315 16.2581L9.30556 16.2478L9.29613 16.2375L9.28671 16.2272L9.27731 16.2169L9.26792 16.2067L9.25854 16.1964L9.24917 16.1862L9.23982 16.176L9.23377 16.1694L25.1313 1.60199L28.2665 5.02342ZM11.5376 20.1638C10.0663 20.9552 8.89647 21.5059 7.97814 21.8633C6.9334 22.27 6.26053 22.4075 5.85759 22.396C5.66189 22.3904 5.56885 22.3504 5.53052 22.3255C5.50305 22.3076 5.4839 22.2863 5.46965 22.2339C5.42864 22.0831 5.4603 21.7763 5.65352 21.2899C6.02491 20.3549 6.82402 19.1586 7.55793 18.169C7.92019 17.6805 8.2583 17.2532 8.50582 16.9481C8.51944 16.9313 8.53278 16.9149 8.54583 16.8988L8.54943 16.9028L8.55885 16.9131L8.56828 16.9233L8.57772 16.9337L8.58718 16.944L8.59665 16.9543L8.60613 16.9646L8.61562 16.975L8.62512 16.9854L8.63464 16.9958L8.64417 17.0062L8.65371 17.0166L8.66326 17.027L8.67282 17.0374L8.68239 17.0479L8.69198 17.0583L8.70157 17.0688L8.71118 17.0793L8.7208 17.0898L8.73042 17.1003L8.74006 17.1108L8.74971 17.1213L8.75937 17.1319L8.76904 17.1424L8.77871 17.153L8.7884 17.1636L8.7981 17.1741L8.80781 17.1847L8.81752 17.1953L8.82725 17.206L8.83698 17.2166L8.84672 17.2272L8.85647 17.2379L8.86623 17.2485L8.876 17.2592L8.88578 17.2698L8.89556 17.2805L8.90535 17.2912L8.91515 17.3019L8.92496 17.3126L8.93477 17.3233L8.9446 17.334L8.95443 17.3448L8.96426 17.3555L8.97411 17.3662L8.98396 17.377L8.99382 17.3877L9.00368 17.3985L9.01355 17.4093L9.02343 17.4201L9.03331 17.4308L9.0432 17.4416L9.05309 17.4524L9.06299 17.4632L9.0729 17.474L9.08281 17.4849L9.09272 17.4957L9.10265 17.5065L9.11257 17.5173L9.1225 17.5282L9.13244 17.539L9.14238 17.5499L9.15233 17.5607L9.16227 17.5716L9.17223 17.5824L9.18219 17.5933L9.19215 17.6042L9.20211 17.6151L9.21208 17.6259L9.22205 17.6368L9.23203 17.6477L9.24201 17.6586L9.25199 17.6695L9.26197 17.6804L9.27196 17.6913L9.28195 17.7022L9.29194 17.7131L9.30193 17.724L9.31193 17.7349L9.32193 17.7458L9.33193 17.7567L9.34193 17.7676L9.35194 17.7786L9.36194 17.7895L9.37195 17.8004L9.38195 17.8113L9.39196 17.8222L9.40197 17.8332L9.41198 17.8441L9.42199 17.855L9.43201 17.8659L9.44202 17.8769L9.45203 17.8878L9.46204 17.8987L9.47205 17.9096L9.48207 17.9206L9.49208 17.9315L9.50209 17.9424L9.5121 17.9533L9.52211 17.9643L9.53212 17.9752L9.54212 17.9861L9.55213 17.997L9.56213 18.0079L9.57214 18.0189L9.58214 18.0298L9.59214 18.0407L9.60214 18.0516L9.61213 18.0625L9.62212 18.0734L9.63212 18.0843L9.6421 18.0952L9.65209 18.1061L9.66207 18.117L9.67205 18.1279L9.68203 18.1388L9.69201 18.1497L9.70198 18.1606L9.71194 18.1714L9.72191 18.1823L9.73187 18.1932L9.74182 18.204L9.75177 18.2149L9.76172 18.2258L9.77167 18.2366L9.7816 18.2475L9.79154 18.2583L9.80147 18.2691L9.81139 18.28L9.82131 18.2908L9.83123 18.3016L9.84114 18.3124L9.85104 18.3232L9.86094 18.334L9.87083 18.3448L9.88072 18.3556L9.8906 18.3664L9.90047 18.3772L9.91034 18.3879L9.9202 18.3987L9.93006 18.4095L9.9399 18.4202L9.94975 18.431L9.95958 18.4417L9.96941 18.4524L9.97923 18.4631L9.98904 18.4738L9.99884 18.4845L10.0086 18.4952L10.0184 18.5059L10.0282 18.5166L10.038 18.5272L10.0478 18.5379L10.0575 18.5486L10.0673 18.5592L10.077 18.5698L10.0867 18.5804L10.0964 18.591L10.1062 18.6016L10.1159 18.6122L10.1256 18.6228L10.1352 18.6334L10.1449 18.6439L10.1546 18.6545L10.1642 18.665L10.1739 18.6755L10.1835 18.6861L10.1931 18.6966L10.2027 18.7071L10.2123 18.7175L10.2219 18.728L10.2315 18.7385L10.2411 18.7489L10.2506 18.7593L10.2602 18.7697L10.2697 18.7802L10.2793 18.7905L10.2888 18.8009L10.2983 18.8113L10.3078 18.8217L10.3172 18.832L10.3267 18.8423L10.3361 18.8526L10.3456 18.8629L10.355 18.8732L10.3644 18.8835L10.3738 18.8937L10.3832 18.904L10.3926 18.9142L10.4019 18.9244L10.4113 18.9346L10.4206 18.9448L10.4299 18.955L10.4392 18.9651L10.4485 18.9753L10.4578 18.9854L10.4671 18.9955L10.4763 19.0056L10.4855 19.0157L10.4948 19.0257L10.504 19.0358L10.5131 19.0458L10.5223 19.0558L10.5315 19.0658L10.5406 19.0758L10.5497 19.0857L10.5588 19.0957L10.5679 19.1056L10.577 19.1155L10.5861 19.1254L10.5951 19.1352L10.6041 19.1451L10.6131 19.1549L10.6221 19.1647L10.6311 19.1745L10.6401 19.1843L10.649 19.1941L10.6579 19.2038L10.6668 19.2135L10.6757 19.2232L10.6846 19.2329L10.6935 19.2426L10.7023 19.2522L10.7111 19.2618L10.7199 19.2714L10.7287 19.281L10.7374 19.2906L10.7462 19.3001L10.7549 19.3096L10.7636 19.3191L10.7723 19.3286L10.781 19.3381L10.7896 19.3475L10.7982 19.3569L10.8068 19.3663L10.8154 19.3757L10.824 19.385L10.8325 19.3943L10.8411 19.4037L10.8496 19.4129L10.858 19.4222L10.8665 19.4314L10.875 19.4406L10.8834 19.4498L10.8918 19.459L10.9002 19.4681L10.9085 19.4773L10.9168 19.4864L10.9252 19.4954L10.9334 19.5045L10.9417 19.5135L10.95 19.5225L10.9582 19.5315L10.9664 19.5404L10.9746 19.5493L10.9827 19.5582L10.9909 19.5671L10.999 19.576L11.0071 19.5848L11.0151 19.5936L11.0232 19.6024L11.0312 19.6111L11.0392 19.6198L11.0471 19.6285L11.0551 19.6372L11.063 19.6459L11.0709 19.6545L11.0788 19.6631L11.0866 19.6716L11.0944 19.6802L11.1022 19.6887L11.11 19.6971L11.1177 19.7056L11.1255 19.714L11.1332 19.7224L11.1408 19.7308L11.1485 19.7391L11.1561 19.7475L11.1637 19.7557L11.1713 19.764L11.1788 19.7722L11.1863 19.7804L11.1938 19.7886L11.2013 19.7967L11.2087 19.8048L11.2161 19.8129L11.2235 19.821L11.2308 19.829L11.2381 19.837L11.2454 19.845L11.2527 19.8529L11.26 19.8608L11.2672 19.8687L11.2743 19.8765L11.2815 19.8843L11.2886 19.8921L11.2957 19.8998L11.3028 19.9076L11.3098 19.9152L11.3169 19.9229L11.3238 19.9305L11.3308 19.9381L11.3377 19.9457L11.3446 19.9532L11.3515 19.9607L11.3583 19.9681L11.3651 19.9756L11.3719 19.983L11.3786 19.9903L11.3854 19.9976L11.392 20.0049L11.3987 20.0122L11.4053 20.0194L11.4119 20.0266L11.4185 20.0338L11.425 20.0409L11.4315 20.048L11.438 20.055L11.4444 20.0621L11.4508 20.0691L11.4572 20.076L11.4635 20.0829L11.4698 20.0898L11.4761 20.0966L11.4823 20.1035L11.4885 20.1102L11.4947 20.117L11.5008 20.1237L11.507 20.1303L11.513 20.137L11.5191 20.1436L11.5251 20.1501L11.5311 20.1566L11.537 20.1631L11.5376 20.1638Z" fill="#F5F5F5" stroke="black"/>
</svg>
